Coordinates
version=1
nRows=29
nColumns=24
inDegrees=yes

Units are S.I. units (second, meters, Newtons, ...)
Angles are in degrees.

endheader
time	pelvis_tilt	pelvis_list	pelvis_rotation	pelvis_tx	pelvis_ty	pelvis_tz	hip_flexion_r	hip_adduction_r	hip_rotation_r	knee_angle_r	ankle_angle_r	subtalar_angle_r	mtp_angle_r	hip_flexion_l	hip_adduction_l	hip_rotation_l	knee_angle_l	ankle_angle_l	subtalar_angle_l	mtp_angle_l	lumbar_extension	lumbar_bending	lumbar_rotation
      1.76000000	     28.28154091	     -3.82407056	      0.73643249	      0.15050995	      0.92111721	     -0.01788991	    -33.06791191	      4.93114304	     20.52363316	      6.86261397	     -3.10164190	    -20.03868685	     31.47785194	    -19.85914061	     -2.90671316	     -3.33993848	    -51.56650326	     -0.81203501	    -20.69132356	     22.39790327	    -36.12146085	      4.44975601	      5.16102488
      1.76500000	     28.31278531	     -3.79185577	      0.50948215	      0.15501687	      0.92120284	     -0.01745213	    -33.50537799	      4.76861924	     20.65880508	      7.03267448	     -2.94356721	    -20.00341260	     31.45793745	    -19.20537166	     -2.66804267	     -3.27293799	    -51.13926253	      0.01531377	    -20.93332820	     22.40879557	    -36.25053803	      4.29894147	      5.35581289
      1.77000000	     28.36777921	     -3.80079937	      0.23518061	      0.15950875	      0.92128997	     -0.01688973	    -33.94007241	      4.62841100	     20.85346880	      7.13801720	     -2.71454603	    -19.88607091	     31.26245122	    -18.61563413	     -2.49172184	     -3.29290893	    -50.63254786	      1.00810120	    -20.61380277	     22.30224486	    -36.41008246	      4.15036447	      5.63961161
      1.77500000	     28.40202117	     -3.79880556	      0.02258326	      0.16396591	      0.92127120	     -0.01649458	    -34.36147338	      4.49943787	     20.98291439	      7.27581084	     -2.52193702	    -19.83751358	     31.23158444	    -17.98855642	     -2.28703851	     -3.19442310	    -50.08836523	      1.73356166	    -20.80162354	     22.29878356	    -36.54935274	      4.03252922	      5.82670134
      1.78000000	     28.44152844	     -3.84089508	     -0.18568628	      0.16840262	      0.92121139	     -0.01607177	    -34.76036534	      4.42104492	     21.10426983	      7.34424615	     -2.15881809	    -19.51252524	     30.77710736	    -17.37329768	     -2.16222560	     -3.12682172	    -49.53035073	      2.63555213	    -20.45673390	     21.98453592	    -36.69713636	      3.95332036	      6.06139600
      1.78500000	     28.49256157	     -3.85402175	     -0.39999359	      0.17282626	      0.92113016	     -0.01568334	    -35.17390077	      4.30720141	     21.23844260	      7.42838007	     -1.95899072	    -19.48992712	     30.73901894	    -16.80157039	     -1.97909698	     -3.02153321	    -48.85505346	      3.22709712	    -20.64723226	     21.97097265	    -36.85715473	      3.84255594	      6.27312397
      1.79000000	     28.53824986	     -3.88540918	     -0.59564664	      0.17722134	      0.92099825	     -0.01533684	    -35.57644803	      4.21357543	     21.40560049	      7.50824314	     -1.73353235	    -19.46212820	     30.69778386	    -16.23175438	     -1.82356645	     -2.88391858	    -48.14041922	      3.78355316	    -20.77139524	     21.96312887	    -37.01558533	      3.75924034	      6.48214532
      1.79500000	     28.58800130	     -3.92920190	     -0.77467300	      0.18160711	      0.92081432	     -0.01500789	    -35.97559026	      4.13969623	     21.58361571	      7.57114952	     -1.49463177	    -19.44258152	     30.65322111	    -15.67893726	     -1.69484132	     -2.73246591	    -47.38223559	      4.30476631	    -20.87385227	     21.95748372	    -37.17849624	      3.69176389	      6.68197924
      1.80000000	     28.64248368	     -3.98423470	     -0.94382350	      0.18597093	      0.92059096	     -0.01471695	    -36.37085558	      4.07812481	     21.77545929	      7.61850320	     -1.23906526	    -19.43511617	     30.59690245	    -15.14589961	     -1.58516616	     -2.56876046	    -46.57655583	      4.78327248	    -20.96908909	     21.94769976	    -37.34968293	      3.64225458	      6.88128787
      1.80500000	     28.69136872	     -4.04881179	     -1.10035249	      0.19033005	      0.92032406	     -0.01445330	    -36.75272032	      4.03013243	     21.97598701	      7.65134205	     -0.97956479	    -19.44323321	     30.53194597	    -14.62477138	     -1.49397495	     -2.38056148	    -45.71960586	      5.21288740	    -21.07728625	     21.93301912	    -37.51414210	      3.60581384	      7.07344375
      1.81000000	     28.74345223	     -4.12325422	     -1.24278922	      0.19466691	      0.92001532	     -0.01420867	    -37.12858440	      3.99902602	     22.18991466	      7.66676527	     -0.71287355	    -19.47234596	     30.46117599	    -14.12210229	     -1.42300115	     -2.16964796	    -44.81900536	      5.59651563	    -21.21121143	     21.91349666	    -37.68478070	      3.58289090	      7.25767402
      1.81500000	     28.81789268	     -4.20047481	     -1.41669412	      0.19895779	      0.91973213	     -0.01393635	    -37.51236892	      3.94751250	     22.47477371	      7.65301509	     -0.41876957	    -19.52377021	     30.15968370	    -13.68120086	     -1.34860300	     -1.97631040	    -43.82683267	      5.79483469	    -21.46507051	     21.79737498	    -37.88553159	      3.54082333	      7.48993072
      1.82000000	     28.83245346	     -4.29451243	     -1.50601571	      0.20331111	      0.91930260	     -0.01379841	    -37.83956863	      3.96266806	     22.66962607	      7.64966422	     -0.16259560	    -19.58669351	     30.08482150	    -13.16455743	     -1.32144566	     -1.68250358	    -42.85722283	      6.15862780	    -21.62867655	     21.77822739	    -38.01307341	      3.56781192	      7.61807531
      1.82500000	     28.87613465	     -4.38011499	     -1.62015764	      0.20757876	      0.91890258	     -0.01365423	    -38.18915802	      3.94525855	     22.97080672	      7.64081704	      0.06910511	    -19.73802413	     29.42795049	    -12.71798331	     -1.26144970	     -1.35912736	    -41.77847075	      6.20322441	    -22.20614278	     21.54588158	    -38.18311191	      3.56883247	      7.77398671
      1.83000000	     28.91427829	     -4.48956299	     -1.71814080	      0.21188437	      0.91843534	     -0.01350432	    -38.51535984	      3.97098152	     23.20787410	      7.58070548	      0.40042169	    -19.82630744	     29.36661789	    -12.27537526	     -1.27340254	     -1.07591417	    -40.70817496	      6.47275858	    -22.28167862	     21.53119886	    -38.34134785	      3.59743506	      7.94041715
      1.83500000	     28.94104237	     -4.61134824	     -1.81922612	      0.21617463	      0.91793922	     -0.01335721	    -38.82215725	      4.00342161	     23.48790234	      7.50921188	      0.71577585	    -19.92850346	     29.29156691	    -11.84467913	     -1.30214131	     -0.77911044	    -39.58848695	      6.65694040	    -22.46221252	     21.49624658	    -38.49072749	      3.63366257	      8.11245688
      1.84000000	     28.96917307	     -4.73084257	     -1.94552210	      0.22041568	      0.91745636	     -0.01321143	    -39.12092256	      4.01214286	     23.84063298	      7.43054079	      0.96698824	    -20.12103475	     28.98616898	    -11.45469221	     -1.30917509	     -0.45121619	    -38.37156334	      6.49668893	    -23.04361998	     21.34638417	    -38.64771400	      3.65291424	      8.31748929
      1.84500000	     28.97662928	     -4.86781712	     -1.99128883	      0.22472029	      0.91685883	     -0.01314628	    -39.40497125	      4.09108776	     24.09635222	      7.34838965	      1.27043933	    -20.24183345	     28.92464379	    -11.03421950	     -1.38177043	     -0.06343486	    -37.20129647	      6.68850769	    -23.17207193	     21.32325992	    -38.77322658	      3.73033103	      8.43708817
      1.85000000	     28.99214018	     -5.00436703	     -2.10776614	      0.22894236	      0.91630401	     -0.01303895	    -39.67547123	      4.12052973	     24.47425506	      7.23790792	      1.53074391	    -20.46677504	     28.63598086	    -10.67662509	     -1.42564813	      0.29885140	    -35.90866380	      6.44302194	    -23.79386801	     21.17346165	    -38.91964089	      3.77078171	      8.63402960
      1.85500000	     28.98604617	     -5.14712696	     -2.16626994	      0.23321494	      0.91566729	     -0.01300754	    -39.93225685	      4.19063112	     24.80719712	      7.13557790	      1.80507721	    -20.68728386	     28.32228112	    -10.30344410	     -1.50042332	      0.74025400	    -34.62017284	      6.31709188	    -24.27008587	     21.05252258	    -39.03496473	      3.84917492	      8.75986796
      1.86000000	     28.97373271	     -5.30821629	     -2.22068398	      0.23748808	      0.91500254	     -0.01297550	    -40.18107359	      4.27814888	     25.16428142	      7.02875191	      2.08991306	    -20.86153553	     28.03006703	     -9.94479949	     -1.60792272	      1.19339931	    -33.31230363	      6.17955299	    -24.69179329	     20.94540055	    -39.14351815	      3.94201175	      8.89342820
      1.86500000	     28.95542644	     -5.47281661	     -2.28172242	      0.24176614	      0.91431485	     -0.01293933	    -40.41256800	      4.36956453	     25.51819069	      6.89368555	      2.38461203	    -21.04016651	     27.76223581	     -9.61042993	     -1.72719861	      1.65615237	    -31.96197553	      5.97427346	    -25.13759587	     20.83695915	    -39.24547332	      4.03420290	      9.04448758
      1.87000000	     28.91293223	     -5.64648592	     -2.35089384	      0.24606323	      0.91359764	     -0.01287984	    -40.60703663	      4.47328776	     25.86823128	      6.72855104	      2.68263998	    -21.22222157	     27.54689114	     -9.27804996	     -1.86919245	      2.11935679	    -30.58195167	      5.72324275	    -25.57411722	     20.73553874	    -39.32078802	      4.12667549	      9.21354782
      1.87500000	     28.88635083	     -5.82240736	     -2.38474339	      0.25034852	      0.91285411	     -0.01291134	    -40.83495262	      4.58501131	     26.24012918	      6.60211932	      2.95625264	    -21.41859284	     27.29689046	     -8.98216030	     -2.01376521	      2.67195422	    -29.17860400	      5.39405542	    -26.12159908	     20.62442161	    -39.41231951	      4.24425266	      9.32916407
      1.88000000	     28.82237077	     -6.01483870	     -2.45181313	      0.25467096	      0.91208177	     -0.01286837	    -41.00651261	      4.70471814	     26.62971390	      6.42983161	      3.24438043	    -21.60382712	     27.09723296	     -8.67714252	     -2.19319239	      3.17821562	    -27.75506100	      5.03133078	    -26.62644645	     20.52400596	    -39.46207843	      4.35397206	      9.49537165
      1.88500000	     28.76222398	     -6.20840288	     -2.50794594	      0.25900867	      0.91129289	     -0.01283782	    -41.18350406	      4.83356529	     27.00300957	      6.25441456	      3.52467888	    -21.80347956	     26.92070764	     -8.40202864	     -2.38371957	      3.71926391	    -26.31212678	      4.62788140	    -27.16309349	     20.42537311	    -39.51257217	      4.46764094	      9.65134782
      1.89000000	     28.69464163	     -6.41023529	     -2.55864539	      0.26335586	      0.91048194	     -0.01283696	    -41.35593696	      4.97015452	     27.38929214	      6.08433634	      3.79282142	    -22.00111876	     26.75278568	     -8.14246494	     -2.58902883	      4.29447433	    -24.85489442	      4.15094400	    -27.77409046	     20.32175291	    -39.55459013	      4.59414833	      9.80688388
      1.89500000	     28.61981218	     -6.61864014	     -2.60533612	      0.26770874	      0.90965466	     -0.01283568	    -41.52190685	      5.11494853	     27.78634906	      5.91542978	      4.04791775	    -22.20098429	     26.59192397	     -7.89549754	     -2.81286311	      4.89086692	    -23.39637399	      3.61383613	    -28.43519289	     20.22196078	    -39.58954736	      4.72573487	      9.94617852
      1.90000000	     28.53698457	     -6.83960549	     -2.66424795	      0.27210762	      0.90881656	     -0.01278945	    -41.67318795	      5.27280773	     28.17316482	      5.71642507	      4.31359461	    -22.38463351	     26.46565982	     -7.66440921	     -3.06820426	      5.45296285	    -21.94542788	      3.08121421	    -29.05894381	     20.13522750	    -39.60996113	      4.85638553	     10.10405363
